<svg viewBox="0 0 32 32" xmlns="http://www.w3.org/2000/svg"><path d="m16 3c-7.168 0-13 5.832-13 13s5.832 13 13 13 13-5.832 13-13-5.832-13-13-13zm0 2c6.065 0 11 4.935 11 11s-4.935 11-11 11c-5.108506 0-9.4014362-3.505789-10.6328125-8.234375l3.6660156 1.570313c.1687435 1.496957 1.4247049 2.664062 2.9667969 2.664062 1.657 0 3-1.343 3-3 0-.032-.008766-.06275-.009766-.09375l4.177735-2.921875c2.13-.09 3.832031-1.832375 3.832031-3.984375 0-2.209-1.791-4-4-4-2.152 0-3.893422 1.702031-3.982422 3.832031l-2.923828 4.177735c-.032-.001-.06175-.009766-.09375-.009766-.663304 0-1.270913.22153-1.767578.585938l-5.1992189-2.228516c.3356655-5.7654704 5.1186999-10.357422 10.9667969-10.357422zm3 5c1.657 0 3 1.343 3 3s-1.343 3-3 3-3-1.343-3-3 1.343-3 3-3zm0 1a2 2 0 0 0 0 4 2 2 0 0 0 0-4zm-7 7c1.105 0 2 .895 2 2s-.895 2-2 2c-.808787 0-1.501225-.481523-1.816406-1.171875l.783203.335937c.192.083.392844.123047.589844.123047.582 0 1.136859-.341156 1.380859-.910156.326-.761-.027062-1.64275-.789062-1.96875l-.728516-.3125c.184807-.056318.37679-.095703.580078-.095703z"/></svg>